<svg id="Capa_1" enable-background="new 0 0 512 512" height="512" viewBox="0 0 512 512" width="512" xmlns="http://www.w3.org/2000/svg"><path d="m488.493 391.573h-224.995v-27.569h149.996c8.284 0 15-6.716 15-15 0-45.424-9.192-87.146-27.32-124.007-28.917-58.797-81.185-104.153-137.676-127.372.001-.855 0 1.86 0-82.613 0-10.664-10.842-17.926-20.703-13.873l-89.998 36.999c-12.308 5.06-12.387 22.517-.131 27.692l80.832 34.129v3.408l-162.372 237.163c-6.806 9.941.331 23.474 12.377 23.474h149.996v27.569h-209.995c-9.171 0-16.207 8.173-14.83 17.25l13.72 90.428c1.112 7.331 7.414 12.75 14.83 12.75h335.288c61.244 0 116.013-41.208 130.568-101.935 2.253-9.412-4.883-18.493-14.587-18.493zm-90.365-57.569h-112.461c40.738-49.628 49.569-117.76 21.972-176.221 55.714 42.812 86.839 102.502 90.489 176.221zm-134.63-20.296v-170.365c40.116 50.029 40.059 120.408 0 170.365zm-65.998-261.512 35.999-14.799v29.999zm-85.55 281.808 121.549-177.534v177.535h-121.549zm260.563 147.997h-322.393l-9.168-60.429h426.61c-16.52 36.276-53.494 60.429-95.049 60.429z"/></svg>